<svg xmlns="http://www.w3.org/2000/svg" viewBox="0 0 512 512" role="img" aria-labelledby="title">
  <title id="title">Kinetix logo mark</title>
  <rect width="512" height="512" fill="#070808"/>
  <path fill="#f6f5f0" d="M120 382c10-78 58-134 116-188 55-51 116-93 203-126-71 70-146 122-225 180-43 32-75 72-94 134Z"/>
  <path fill="#f6f5f0" d="M133 176c45 2 71-3 99 12l54 31c8 5 9 12 2 20l-38 37c12-34-28-52-54-70l-63-30Z"/>
  <path fill="#f6f5f0" d="M306 278c18-19 42-32 70-42l-44 45c-10 10-9 17 3 27l70 59-91-22c-15-4-27-11-38-22l-42-41c-7-7-7-16 0-23 16-16 38-28 72-38l-38 37c-8 8-8 13 1 20l37 30Z"/>
</svg>
